<svg id="Layer_3" enable-background="new 0 0 64 64" height="512" viewBox="0 0 64 64" width="512" xmlns="http://www.w3.org/2000/svg"><g><g><path d="m50 56h-32v2c0 2.209-1.791 4-4 4-2.209 0-4-1.791-4-4v-52c0-2.209-1.791-4-4-4h37c3.866 0 7 3.134 7 7z" fill="#adaba6"/></g><g><path d="m10 6v40.924c3.941 3.191 8.773 5.076 14 5.076 13.255 0 24-12.088 24-27 0-9.725-4.572-18.247-11.429-23h-30.571c2.209 0 4 1.791 4 4z" fill="#f1efeb"/></g><g><g><path d="m50 56h-32v2c0 2.209-1.791 4-4 4h36c2.209 0 4-1.791 4-4v-2z" fill="#74726f"/></g></g><g><path d="m10 14h-8v-8c0-2.209 1.791-4 4-4 2.209 0 4 1.791 4 4z" fill="#74726f"/></g><g><circle cx="22" cy="44" fill="#b57769" r="8"/></g><g><circle cx="22" cy="44" fill="#f29f8c" r="4"/></g><g><path d="m52.732 35.661h3.536v17.678h-3.536z" fill="#bf8859" transform="matrix(.707 -.707 .707 .707 -15.504 51.571)"/></g><g><path d="m41.05 32.464h9.899v7.071h-9.899z" fill="#bf8859" transform="matrix(.707 -.707 .707 .707 -11.983 43.071)"/></g><g><path d="m38.879 36.05h4.243v9.899h-4.243z" fill="#bf8859" transform="matrix(.707 -.707 .707 .707 -16.983 41)"/></g><g><path d="m48.879 26.05h4.243v9.899h-4.243z" fill="#bf8859" transform="matrix(.707 -.707 .707 .707 -6.983 45.142)"/></g><g><path d="m50 63h-36c-2.757 0-5-2.243-5-5v-43h-7c-.553 0-1-.448-1-1v-8c0-2.757 2.243-5 5-5s5 2.243 5 5v52c0 1.654 1.346 3 3 3s3-1.346 3-3v-2c0-.552.447-1 1-1h36c.553 0 1 .448 1 1v2c0 2.757-2.243 5-5 5zm-32.002-2h32.002c1.654 0 3-1.346 3-3v-1h-34v1c0 1.125-.373 2.164-1.002 3zm-14.998-48h6v-7c0-1.654-1.346-3-3-3s-3 1.346-3 3z"/></g><g><path d="m49 42.5h2v13.5h-2z"/></g><g><path d="m51 27h-2v-19c0-2.757-2.243-5-5-5h-38v-2h38c3.859 0 7 3.14 7 7z"/></g><g><path d="m43 47c-.256 0-.512-.098-.707-.293l-7-7c-.391-.391-.391-1.023 0-1.414l3-3c.391-.391 1.023-.391 1.414 0l7 7c.391.391.391 1.023 0 1.414l-3 3c-.195.195-.451.293-.707.293zm-5.586-8 5.586 5.586 1.586-1.586-5.586-5.586z"/></g><g><path d="m53 37c-.256 0-.512-.098-.707-.293l-7-7c-.391-.391-.391-1.023 0-1.414l3-3c.391-.391 1.023-.391 1.414 0l7 7c.391.391.391 1.023 0 1.414l-3 3c-.195.195-.451.293-.707.293zm-5.586-8 5.586 5.586 1.586-1.586-5.586-5.586z"/></g><g><path d="m38.55 32.5h9.899v2h-9.899z" transform="matrix(.707 -.707 .707 .707 -10.947 40.571)"/></g><g><path d="m43.55 37.5h9.899v2h-9.899z" transform="matrix(.707 -.707 .707 .707 -13.018 45.571)"/></g><g><path d="m59.5 53c-.256 0-.512-.098-.707-.293l-12.5-12.5 1.414-1.414 11.793 11.793 1.086-1.086-11.793-11.793 1.414-1.414 12.5 12.5c.391.391.391 1.023 0 1.414l-2.5 2.5c-.195.195-.451.293-.707.293z"/></g><g><path d="m14 19h33v2h-33z"/></g><g><path d="m14 27h29v2h-29z"/></g><g><path d="m14 23h33v2h-33z"/></g><g><path d="m14 11h33v2h-33z"/></g><g><path d="m14 7h33v2h-33z"/></g><g><path d="m14 15h33v2h-33z"/></g><g><path d="m14 31h27v2h-27z"/></g><g><path d="m22 53c-4.963 0-9-4.038-9-9s4.037-9 9-9 9 4.038 9 9-4.037 9-9 9zm0-16c-3.859 0-7 3.14-7 7s3.141 7 7 7 7-3.14 7-7-3.141-7-7-7z"/></g><g><path d="m22 49c-2.757 0-5-2.243-5-5s2.243-5 5-5 5 2.243 5 5-2.243 5-5 5zm0-8c-1.654 0-3 1.346-3 3s1.346 3 3 3 3-1.346 3-3-1.346-3-3-3z"/></g><g><path d="m45 53h-4c-1.426 0-2.68-.75-3.388-1.875-1.22 1.191-2.867 1.875-4.612 1.875v-2c1.543 0 2.976-.767 3.832-2.051l.336-.504c.244-.367.702-.531 1.122-.402.422.127.71.517.71.957 0 1.103.897 2 2 2h4z"/></g></g></svg>