<svg id="Capa_1" enable-background="new 0 0 512 512" height="512" viewBox="0 0 512 512" width="512" xmlns="http://www.w3.org/2000/svg"><g><g><g><g><g><g><g><path d="m195.82 504.887c-112.348-27.068-195.82-128.23-195.82-248.887 0-141.385 114.615-256 256-256s256 114.615 256 256c0 119.508-81.889 219.889-192.616 248.093z" fill="#7584f2"/></g></g></g></g></g></g><path d="m319.384 504.093c110.727-28.204 192.616-128.585 192.616-248.093 0-12.944-.961-25.664-2.815-38.092l-87.294-87.294-11.612 28.374-87.209-87.209-7.458 32.702-36.708-36.708-5.777 55.147-38.156-38.156-1.602 59.836-38.545-38.545-63.966 53.311-76.905 186.81 3.16 3.503 145.747 145.403z" fill="#4855b7"/><path d="m263.564 130.614h-161.974l-40.552 200.273 29.403 5.954 24.171-119.368 24.17 119.368 29.403-5.954-34.478-170.273h129.857z" fill="#ffce00"/><path d="m421.892 130.614h-165.892v30h133.773l-34.476 170.273 29.402 5.954 24.171-119.369 24.17 119.369 29.403-5.954z" fill="#fdba12"/><g><path d="m347.916 172.06c-.056-1.182-.198-2.375-.431-3.571-2.6-13.339-15.521-22.044-28.86-19.444l-47.355 9.231c-13.339 2.6-22.044 15.522-19.444 28.861s15.521 22.044 28.86 19.444l31.835-6.206c.256 2.661.88 5.221 1.82 7.602l-33.766 7.014c-3.251.675-6.482.778-9.602.374-10.276 8.586-17.41 20.784-19.474 34.523l-12.411.107c1.841-15.238 8.78-29.029 19.096-39.522-6.864-4.657-11.991-12.19-13.671-21.373-3.249-17.762 7.628-34.968 24.296-38.43l44.009-9.55c.517-.107 6.625-21.405 7.14-21.484l-11.419-9.272-19.042 4.344-.058 6.874h-7.148v-5.23l-37.694 8.598v5.222h-5.929v-3.87l-35.484 8.094v6.514h-5.929v-5.161l-30.114 6.869.234 110.428c1.669 18.893 12.7 35.093 28.422 43.937.013.007.021.021.021.036v207.867c19.3 4.65 39.452 7.113 60.18 7.113 21.879 0 43.116-2.745 63.388-7.908 0-87.983 0-204.508 0-204.508 0-.017.009-.031.024-.038 16.794-7.506 28.532-24.359 28.532-43.911 0 0-.007-83.068-.019-83.352 0-.061-.006-.209-.007-.222z" fill="#faa68e"/></g><g fill="#e09380"><path d="m268.809 150.669 44.009-9.55c.517-.107 6.625-21.405 7.14-21.484l-11.419-9.272-19.042 4.344-.058 6.874h-7.148v-5.23l-26.291 5.998v34.465c3.651-2.985 7.985-5.143 12.809-6.145z"/><path d="m347.925 172.282c-.002-.061-.009-.208-.009-.222-.056-1.182-.198-2.375-.431-3.571-2.6-13.339-15.521-22.044-28.86-19.444l-47.355 9.231c-6.407 1.249-11.74 4.883-15.27 9.798v28.719c5.44 7.555 14.949 11.686 24.686 9.788l31.835-6.206c.256 2.661.88 5.221 1.82 7.602l-33.766 7.014c-3.251.675-6.482.778-9.602.374-6.339 5.297-11.477 11.971-14.972 19.531v277.104c21.879 0 43.116-2.745 63.387-7.908 0-87.983 0-204.508 0-204.508 0-.017.009-.031.024-.038 16.794-7.506 28.532-24.359 28.532-43.911 0-.001-.007-83.069-.019-83.353z"/></g><g><g><path d="m263.564 152.111c-10.508 0-19.026-8.518-19.026-19.026v-54.059c0-10.508 8.518-19.026 19.026-19.026 10.508 0 19.026 8.518 19.026 19.026v54.059c0 10.508-8.518 19.026-19.026 19.026z" fill="#e09380"/></g></g><g><g><path d="m263.564 60c-2.69 0-5.245.565-7.564 1.572v88.968c2.319 1.007 4.875 1.572 7.564 1.572 10.508 0 19.026-8.518 19.026-19.026v-54.06c0-10.508-8.518-19.026-19.026-19.026z" fill="#d47f6c"/></g></g><g><g><path d="m308.54 142.643c-10.508 0-19.026-8.518-19.026-19.026v-39.561c0-10.508 8.518-19.026 19.026-19.026 10.508 0 19.026 8.518 19.026 19.026v39.561c0 10.507-8.519 19.026-19.026 19.026z" fill="#d47f6c"/></g></g><g><g><path d="m181.307 169.887c-9.527 0-17.251-7.723-17.251-17.251v-35.87c0-9.527 7.723-17.251 17.251-17.251 9.527 0 17.251 7.723 17.251 17.251v35.87c-.001 9.527-7.724 17.251-17.251 17.251z" fill="#e09380"/></g></g><g><g><path d="m220.995 168.323h-.464c-9.898 0-17.922-8.024-17.922-17.922v-54.423c0-9.898 8.024-17.922 17.922-17.922h.464c9.898 0 17.922 8.024 17.922 17.922v54.423c0 9.898-8.024 17.922-17.922 17.922z" fill="#e09380"/></g></g><g><path d="m347.926 172.282c-.002-.061-.009-.209-.01-.222-.056-1.182-.198-2.375-.431-3.571-2.6-13.339-15.521-22.044-28.86-19.444l-47.355 9.231c-10.384 2.024-17.958 10.304-19.578 20.167h96.239c-.002-3.806-.004-6.114-.005-6.161z" fill="#faa68e"/></g><g><path d="m347.925 172.282c-.002-.061-.009-.208-.009-.222-.056-1.182-.198-2.375-.431-3.571-2.6-13.339-15.521-22.044-28.86-19.444l-47.355 9.231c-6.409 1.249-11.741 4.886-15.27 9.802v10.365h91.931c-.002-3.806-.004-6.114-.006-6.161z" fill="#e09380"/></g><g><path d="m434.874 362.69h-52.009c-24.643 0-44.621-19.977-44.621-44.621h141.251c0 24.643-19.977 44.621-44.621 44.621z" fill="#ffa300"/></g><g><path d="m140.616 362.69h-52.009c-24.643 0-44.621-19.977-44.621-44.621h141.251c0 24.643-19.977 44.621-44.621 44.621z" fill="#fdba12"/></g></g></svg>